<?xml version="1.0" encoding="UTF-8"?>
<svg id="Layer_1" data-name="Layer 1" xmlns="http://www.w3.org/2000/svg" xmlns:xlink="http://www.w3.org/1999/xlink" viewBox="0 0 58.85 48.2">
  <defs>
    <style>
      .cls-1 {
        fill: #192953;
      }

      .cls-1, .cls-2 {
        stroke-width: 0px;
      }

      .cls-3 {
        mask: url(#mask-2);
      }

      .cls-4 {
        filter: url(#luminosity-invert-noclip-2);
      }

      .cls-5 {
        mask: url(#mask-3);
      }

      .cls-6 {
        mask: url(#mask-5);
      }

      .cls-7 {
        filter: url(#luminosity-invert-noclip-3);
      }

      .cls-2 {
        fill: #fff;
      }

      .cls-8 {
        filter: url(#luminosity-invert-noclip-6);
      }

      .cls-9 {
        mask: url(#mask-4);
      }

      .cls-10 {
        mask: url(#mask-6);
      }

      .cls-11 {
        filter: url(#luminosity-invert-noclip-5);
      }

      .cls-12 {
        filter: url(#luminosity-invert-noclip-7);
      }

      .cls-13 {
        mask: url(#mask-1);
      }

      .cls-14 {
        mask: url(#mask);
      }

      .cls-15 {
        filter: url(#luminosity-invert-noclip-4);
      }

      .cls-16 {
        filter: url(#luminosity-invert-noclip);
      }
    </style>
    <filter id="luminosity-invert-noclip" x="4.52" y="12.12" width="49.84" height="35.18" color-interpolation-filters="sRGB" filterUnits="userSpaceOnUse">
      <feColorMatrix result="cm" values="-1 0 0 0 1 0 -1 0 0 1 0 0 -1 0 1 0 0 0 1 0"/>
      <feFlood flood-color="#fff" result="bg"/>
      <feBlend in="cm" in2="bg"/>
    </filter>
    <mask id="mask" x="4.52" y="12.12" width="49.84" height="35.18" maskUnits="userSpaceOnUse">
      <g class="cls-16">
        <ellipse class="cls-2" cx="30.32" cy="45.14" rx="1.1" ry=".7"/>
      </g>
    </mask>
    <filter id="luminosity-invert-noclip-2" x="34.17" y="29.98" width="7.13" height="18.22" color-interpolation-filters="sRGB" filterUnits="userSpaceOnUse">
      <feColorMatrix result="cm" values="-1 0 0 0 1 0 -1 0 0 1 0 0 -1 0 1 0 0 0 1 0"/>
      <feFlood flood-color="#fff" result="bg"/>
      <feBlend in="cm" in2="bg"/>
    </filter>
    <mask id="mask-1" x="34.17" y="29.98" width="7.13" height="18.22" maskUnits="userSpaceOnUse">
      <g class="cls-4">
        <ellipse class="cls-2" cx="37.4" cy="46.05" rx="1.1" ry=".7"/>
      </g>
    </mask>
    <filter id="luminosity-invert-noclip-3" x="20.48" y="27.52" width="6.45" height="15.45" color-interpolation-filters="sRGB" filterUnits="userSpaceOnUse">
      <feColorMatrix result="cm" values="-1 0 0 0 1 0 -1 0 0 1 0 0 -1 0 1 0 0 0 1 0"/>
      <feFlood flood-color="#fff" result="bg"/>
      <feBlend in="cm" in2="bg"/>
    </filter>
    <mask id="mask-2" x="20.48" y="27.52" width="6.45" height="15.45" maskUnits="userSpaceOnUse">
      <g class="cls-7">
        <g>
          <ellipse class="cls-2" cx="23.64" cy="29.68" rx="1.1" ry=".7"/>
          <ellipse class="cls-2" cx="23.7" cy="40.74" rx="1.1" ry=".7"/>
        </g>
      </g>
    </mask>
    <filter id="luminosity-invert-noclip-4" x="35.59" y="1.26" width="8.7" height="13.09" color-interpolation-filters="sRGB" filterUnits="userSpaceOnUse">
      <feColorMatrix result="cm" values="-1 0 0 0 1 0 -1 0 0 1 0 0 -1 0 1 0 0 0 1 0"/>
      <feFlood flood-color="#fff" result="bg"/>
      <feBlend in="cm" in2="bg"/>
    </filter>
    <mask id="mask-3" x="35.59" y="1.26" width="8.7" height="13.09" maskUnits="userSpaceOnUse">
      <g class="cls-15">
        <ellipse class="cls-2" cx="41.17" cy="3.39" rx="1.26" ry=".88"/>
      </g>
    </mask>
    <filter id="luminosity-invert-noclip-5" x="30.18" y="13.11" width="8.1" height="6.76" color-interpolation-filters="sRGB" filterUnits="userSpaceOnUse">
      <feColorMatrix result="cm" values="-1 0 0 0 1 0 -1 0 0 1 0 0 -1 0 1 0 0 0 1 0"/>
      <feFlood flood-color="#fff" result="bg"/>
      <feBlend in="cm" in2="bg"/>
    </filter>
    <mask id="mask-4" x="30.18" y="13.11" width="8.1" height="6.76" maskUnits="userSpaceOnUse">
      <g class="cls-11">
        <ellipse class="cls-2" cx="35.23" cy="17.69" rx="1.1" ry=".7"/>
      </g>
    </mask>
    <filter id="luminosity-invert-noclip-6" x="17.78" y="8.83" width="6.31" height="4.42" color-interpolation-filters="sRGB" filterUnits="userSpaceOnUse">
      <feColorMatrix result="cm" values="-1 0 0 0 1 0 -1 0 0 1 0 0 -1 0 1 0 0 0 1 0"/>
      <feFlood flood-color="#fff" result="bg"/>
      <feBlend in="cm" in2="bg"/>
    </filter>
    <mask id="mask-5" x="17.78" y="8.83" width="6.31" height="4.42" maskUnits="userSpaceOnUse">
      <g class="cls-8">
        <ellipse class="cls-2" cx="21.03" cy="11" rx="1.42" ry=".98"/>
      </g>
    </mask>
    <filter id="luminosity-invert-noclip-7" x="22.79" y="0" width="15.17" height="17.56" color-interpolation-filters="sRGB" filterUnits="userSpaceOnUse">
      <feColorMatrix result="cm" values="-1 0 0 0 1 0 -1 0 0 1 0 0 -1 0 1 0 0 0 1 0"/>
      <feFlood flood-color="#fff" result="bg"/>
      <feBlend in="cm" in2="bg"/>
    </filter>
    <mask id="mask-6" x="22.79" y="0" width="15.17" height="17.56" maskUnits="userSpaceOnUse">
      <g class="cls-12">
        <g>
          <ellipse class="cls-2" cx="34.87" cy="2.14" rx="1.58" ry=".88"/>
          <ellipse class="cls-2" cx="29.95" cy="4.94" rx="1.1" ry=".7"/>
          <ellipse class="cls-2" cx="26.51" cy="4.94" rx="1.1" ry=".7"/>
          <ellipse class="cls-2" cx="26.05" cy="15.3" rx="1.1" ry=".7"/>
        </g>
      </g>
    </mask>
  </defs>
  <g class="cls-14">
    <g>
      <path class="cls-1" d="M11.12,29.31v-11.17l-.64.84c.37-.14,1.75.68,2.09.81.76.31,1.51.62,2.27.93,1.66.69,3.33,1.39,4.98,2.09,3.11,1.32,6.21,2.65,9.32,3.97.56.24,1.35-.02,1.31-.75-.05-1.17.11-2.25-.77-3.18-1.22-1.29-2.74-2.43-4.05-3.64l-.39,1.46c.81-.22,1.13.2,1.7.72.49.45.99.89,1.49,1.33.41.37.97.75,1.29,1.19.42.58.31,1.26.3,1.93-.02.72.74,1.01,1.31.75,5.84-2.56,11.68-5.12,17.52-7.68l-.67.09.29.08-.64-.84v11.13c0,.73.73,1,1.31.75,1.38-.58,3.85-1.01,4.09-2.74.15-1.07,0-2.28.01-3.37,0-1.28,0-2.57-.01-3.85,0-.89.21-2.05-.37-2.8s-1.67-1.02-2.49-1.38c-1.19-.53-2.38-1.05-3.57-1.57-.6-.26-1.2-.52-1.79-.78-.45-.19-1.27-.37-1.59-.75l.26.62v-.16c-.07.21-.16.41-.24.62.09-.15.22-.26.37-.35l-.85.22c2.4,1,4.8,2.02,7.18,3.06.56.24,1.25.44,1.76.77.74.47.69.72.7,1.58.01,1.2.01,2.39.01,3.59s0,2.39-.01,3.59c0,.32,0,.64,0,.96,0,.3-.16.45-.5.46-.5.33-1.21.52-1.77.76-1.26.54-2.52,1.08-3.79,1.61-.3.13-2.88,1.32-2.92,1.26l.22.85s1.65-.62,1.74-.66c.66-.28,1.38-.54,2-.9,1.04-.61.95-1.49.95-2.59,0-1.58-.01-3.16-.03-4.74-.01-1.36.16-2.86-.16-4.19-.14-.6-.79-.74-1.28-.52-3.18,1.39-6.35,2.78-9.52,4.17-1.67.73-3.34,1.46-5.01,2.19-1.03.45-2.32.76-2.53,2.01-.25,1.44-.01,3.14,0,4.6,0,.79.04,1.27.39,1.96.48.92.39,1.76.4,2.77,0,0,.07.85.02.91,0,0-1.01.33-.98.32-.37.16-.82.29-1.12.57-.63.59-.45,1.29.16,1.8.17.14.39.22.54.36.57.51.49.88.49,1.54,0,.56-.13,1.23.01,1.77.1.36.27.63.56.86.12.09.84.38.86.45.11.41-.42.46-.71.51-.23.05-1.12.15-1.29-.09-.52-.68.07-.49.28-.72.3-.33.59-.46.73-.94s.03-1,.03-1.46c0-.63.12-1.33-.12-1.93-.16-.4-.47-.69-.84-.92-.03-.02-.82-.44-.8-.29,0,0,.99-.42,1.09-.47.85-.46,1.5-1.17,1.61-2.15.11-1.06-.07-1.99-.51-2.93-.75-1.62-.3-3.93-.36-5.71s-1.29-2.05-2.78-2.69c-1.82-.78-3.64-1.55-5.46-2.33s-3.64-1.55-5.47-2.32c-1.7-.72-3.4-1.59-5.16-2.15-.55-.17-1.11.29-1.11.84v11.76l1.31-.75c-.85-.45-1.69-.88-2.57-1.27-.53-.23-1.06-.46-1.59-.69-.3-.13-1-.29-1.18-.53-.43-.59-.12-2.44-.12-3.19,0-1.12,0-2.24,0-3.36,0-.88-.34-2.76.39-3.31.82-.62,2.13-.93,3.06-1.34,1.02-.45,2.05-.89,3.07-1.33s2.14-1.1,3.25-1.32l-.85-.22.14.18-.09-.67c-.02.15-2.88,1.16-3.24,1.32-1.2.52-2.4,1.05-3.6,1.58-.81.36-2.07.65-2.55,1.48s-.21,2.19-.22,3.1c0,1.31-.01,2.61-.01,3.92,0,.99-.29,2.49.1,3.42.35.84,1.39,1.08,2.16,1.42.83.36,1.62.91,2.54.71,1.1-.24.63-1.92-.46-1.69l-.28.06.67.09c-.78-.34-1.64-.62-2.37-1.03-.96-.54-.61-1.97-.61-2.98s0-1.96,0-2.94c0-.57,0-1.14.01-1.72,0-.41-.14-1.2.11-1.55.19-.26,1.04-.47,1.34-.6.45-.2.9-.4,1.35-.6,1.05-.46,2.1-.92,3.15-1.38.89-.39,1.86-.71,2.72-1.17.48-.26.93-.62.9-1.23-.07-1.6-1.71-1.15-2.64-.75-1.9.82-3.81,1.65-5.71,2.48-.95.41-1.91.8-2.84,1.25-.63.3-1.1.62-1.23,1.34-.17.94-.02,2.05-.03,3,0,1.04,0,2.08,0,3.12,0,1.2,0,2.4.02,3.61.02.7.11,1.22.71,1.65.75.54,1.78.84,2.63,1.21,1.02.44,1.99.92,2.97,1.44.58.3,1.31-.07,1.31-.75v-11.76l-1.11.84c2.39.76,4.71,1.96,7.02,2.94s4.7,2,7.06,3c.53.23,1.06.45,1.59.68.4.17,1.57.44,1.82.78.28.39.11,1.35.11,1.81,0,.63,0,1.25,0,1.88,0,.95-.13,1.95.3,2.83.36.71.85,1.66.53,2.52-.29.78-1.48.85-2.07,1.31-.54.42-.8,1.08-.57,1.74.1.27.27.52.48.72.29.27.94.38,1.14.67.21.3.09.95.09,1.34,0,.2.03.42.01.62,0,.14,0,.27,0,.41l-.18-.06c-.55.47-1.15.58-1.36,1.4-.19.74.14,1.41.71,1.87,1.2.98,3.28.99,4.53.11.6-.42,1.01-1.04.92-1.79-.05-.37-.21-.68-.47-.96-.27-.29-1.07-.47-1.22-.74.15.26.08-.34.08-.38.04-.36.02-.75.01-1.12,0-.53.04-1.12-.16-1.62-.14-.37-.4-.64-.7-.88-.16-.12-.32-.23-.49-.32-.3-.17-.35-.43-.29-.08l-.09.67c.06-.12,1.07-.41,1.29-.51.38-.16.74-.3,1-.63.62-.76.32-2.13.32-3.03,0-.63.05-1.23-.21-1.81-.29-.64-.53-1.04-.58-1.78s0-1.46,0-2.19c0-.42-.2-1.86,0-2.18s1.32-.57,1.67-.73c.68-.3,1.37-.6,2.05-.89,1.44-.63,2.88-1.26,4.32-1.89,2.72-1.19,5.44-2.39,8.16-3.57l-1.28-.52c.27,1.15.08,2.54.09,3.72.01,1.33.02,2.66.02,3.99,0,.45.19,1.44-.08,1.83-.22.31-1.25.57-1.6.72-.8.35-2.13.61-2.7,1.32-.39.49-.38,1.19.13,1.61s1.2.29,1.78.11c2.26-.68,4.49-1.88,6.66-2.81.88-.38,2.14-.67,2.85-1.33s.51-1.59.52-2.45c.02-2.55.02-5.1,0-7.65,0-.93,0-1.63-.8-2.22-.96-.7-2.33-1.08-3.41-1.55-2.23-.96-4.47-1.91-6.72-2.85-.3-.13-.62.05-.85.22-1.72,1.36.42,2.28,1.56,2.77,2.09.9,4.18,1.81,6.25,2.74.65.29.98.33,1.1,1.08.08.54.01,1.14.02,1.68,0,1.12.01,2.25,0,3.37,0,.8.36,2.69-.22,3.32-.28.3-1.22.53-1.59.69-.47.2-.95.4-1.42.6l1.31.75v-11.13c0-.38-.27-.74-.64-.84-1.24-.34-2.88.85-4,1.34-1.59.7-3.19,1.4-4.78,2.1-3.23,1.42-6.47,2.83-9.7,4.25l1.31.75c.02-.84.08-1.69-.31-2.47-.45-.89-1.39-1.54-2.12-2.19-1.44-1.29-2.48-2.76-4.56-2.2-.62.16-.87,1.01-.39,1.46,1.01.93,1.98,1.9,3.03,2.79.43.36,1.08.71,1.26,1.28.14.44,0,1.05.03,1.51l1.31-.75c-3.49-1.48-6.96-2.97-10.45-4.45-1.57-.67-3.15-1.33-4.73-1.98-.91-.37-1.81-.75-2.72-1.11-.71-.29-1.35-.74-2.11-.44-.36.14-.64.43-.64.84v11.17c0,1.12,1.75,1.13,1.75,0Z"/>
      <path class="cls-1" d="M28.59,45.98c.22.1.42.24.63.34.34.17.67.27,1.05.28.33,0,.65-.07.95-.22.25-.12.48-.35.6-.59.16-.33.22-.7.11-1.05-.1-.33-.33-.62-.63-.79-.52-.3-1.16-.3-1.73-.2-.68.11-1.19.61-1.39,1.25-.13.44.16.97.61,1.07s.93-.14,1.07-.61c.01-.04.03-.09.05-.13l-.09.21c.03-.06.06-.12.1-.17l-.14.18c.04-.06.09-.11.15-.15l-.18.14c.06-.04.12-.08.19-.11l-.21.09c.11-.05.23-.07.35-.09l-.23.03c.19-.02.39-.02.58,0l-.23-.03c.11.02.23.04.33.08l-.21-.09c.05.02.11.05.15.09l-.18-.14s.06.05.09.08l-.14-.18s.04.06.06.1l-.09-.21s.03.08.03.12l-.03-.23c0,.05,0,.1,0,.15l.03-.23s-.02.08-.03.12l.09-.21s-.04.09-.08.13l.14-.18s-.06.06-.09.09l.18-.14c-.05.04-.1.07-.16.1l.21-.09c-.08.03-.17.06-.26.07l.23-.03c-.13.02-.25.02-.38,0l.23.03c-.12-.02-.24-.05-.35-.1l.21.09c-.25-.11-.48-.26-.72-.38-.22-.1-.44-.15-.67-.09-.2.06-.42.21-.52.4-.11.2-.16.45-.09.67.07.21.2.43.4.52Z"/>
    </g>
  </g>
  <path class="cls-1" d="M16.1,35.43c-3.17-1.31-6.33-2.63-9.5-3.94-.89-.37-1.77-.74-2.66-1.1-.56-.23-1.83-.51-2.14-1.06-.16-.3,0-1.1,0-1.48,0-.49,0-.99,0-1.48,0-.9,0-1.81,0-2.71,0-1.81,0-3.62-.01-5.42,0-.81-.28-1.62.48-2.05s1.65-.7,2.45-1.04c1.63-.7,3.26-1.39,4.89-2.09.81-.35,1.62-.7,2.44-1.05.4-.17,2.64-1.39,2.94-1.04l.18-1.37c-3.71,1.68-7.46,3.3-11.2,4.92-1.66.72-2.56,1.03-2.55,2.96.01,2.06.02,4.12.02,6.19,0,.99,0,1.98,0,2.97,0,.87-.14,1.87.02,2.73.27,1.49,2.08,1.84,3.28,2.33,1.78.74,3.56,1.49,5.34,2.24.89.37,1.78.75,2.67,1.12.52.22,1.04.43,1.56.65.3.13,1.3.79,1.14.37l.09-.67-.28.27c-.88.7.36,1.92,1.24,1.24,1.04-.82.68-1.81-.4-2.34-1.65-.8-3.42-1.43-5.11-2.13s-3.41-1.43-5.12-2.14c-.49-.21-2.36-.69-2.64-1.14-.3-.49-.04-2.17-.04-2.77,0-1.9,0-3.79,0-5.69,0-.98-.1-2-.01-2.97.07-.76.13-.93.78-1.31.4-.23.92-.4,1.35-.58,3.59-1.56,7.19-3.11,10.75-4.73.55-.25.51-.99.18-1.37-1.27-1.45-3.25-.02-4.62.58-2.07.9-4.14,1.79-6.21,2.67-1.04.44-2.08.89-3.11,1.33-.81.34-1.73.63-2.09,1.5-.33.79-.15,1.84-.14,2.68,0,1.15,0,2.3,0,3.45,0,2.3-.04,4.6,0,6.9.03,2.01,1.28,2.35,2.97,3.05,4.2,1.73,8.4,3.5,12.6,5.23,1.04.43,1.49-1.26.46-1.69Z"/>
  <path class="cls-1" d="M44.34,10.94c3.15,1.33,6.3,2.66,9.45,4,.78.33,1.56.67,2.34,1.02,1.08.49.9,1.24.91,2.3.01,1.75.02,3.5.01,5.25s.06,3.51-.02,5.25c-.02.46.03.69-.31.99-.27.23-.77.33-1.1.48-.81.35-1.62.7-2.43,1.04-1.55.66-3.1,1.32-4.65,1.98s-3.11,1.47-4.73,1.96l.67.09-.14-.04.09.67c-.04.12.9-.26,1.04-.32.52-.22,1.03-.45,1.54-.67.88-.38,1.76-.77,2.65-1.15,1.84-.8,3.68-1.6,5.52-2.39,1.21-.52,2.19-.92,2.33-2.33.2-1.99-.02-4.11-.02-6.1s.24-4.13.04-6.1c-.14-1.4-1.16-1.78-2.35-2.28-1.81-.77-3.62-1.54-5.42-2.32-.9-.39-1.8-.78-2.7-1.17-.48-.21-.96-.43-1.45-.63-.1-.05-.21-.09-.32-.13-.4-.24-.43-.03-.07.63.91-.65.04-2.17-.88-1.51-2.56,1.83,1.39,2.96,2.73,3.54,1.5.65,3,1.3,4.5,1.94.75.32,1.51.64,2.26.96.55.23,1.61.43,1.93.96.27.45-.02,1.87-.02,2.44,0,.81,0,1.63-.01,2.44,0,1.79,0,3.58,0,5.37,0,.65.24,1.78-.24,2.23s-1.52.67-2.1.92c-1.55.67-3.09,1.34-4.63,2.01-1.4.61-2.79,1.22-4.19,1.82-.79.34-2.33.87-1.76,2.04.45.91,1.38.8,2.15.5,1.57-.61,3.11-1.32,4.66-1.98,1.4-.6,2.81-1.19,4.21-1.79.74-.32,1.47-.63,2.21-.95.69-.3,1.64-.53,2.21-1.07.87-.83.52-2.52.52-3.59,0-1.75.01-3.5,0-5.25,0-.92,0-1.83,0-2.75s.13-2.06-.02-3c-.24-1.46-1.85-1.86-3.02-2.37-3.49-1.51-7.01-2.98-10.52-4.46-1.02-.43-1.92,1.07-.88,1.51Z"/>
  <g class="cls-13">
    <g>
      <path class="cls-1" d="M37.05,41.94c0,1.02-.38,2.73.53,3.44.22.17,1.1.49,1.04.68-.13.38-1.14.4-1.41.39-.21,0-1.16-.07-1.23-.41-.04-.18.77-.56.95-.74.85-.83.55-2.33.54-3.4,0-.47-.4-.87-.87-.87-.16,0-.49-.05-.63,0h-.16c-.27.58-.23.8.12.65.25.03.8-.09,1.01-.22.32-.2.49-.6.49-.97,0-.24-.1-.39.03-.61.4-.68,1.52-.65,2.05-1.21.67-.7.55-2.09.5-2.98-.1-1.69-2.2-1.9-3.4-2.53-.37-.19-.51-.27-.54-.5-.02-.16.01-.44.03-.64,0-.03.06-.49.05-.5l-.16.32c.14-.08.27-.15.4-.24h-.88c.24.17.16-.09.14.28-.02.27-.01.53.03.79.07.44.23.81.55,1.13.61.61,1.64.83,2.41,1.16.24.1.49.21.72.34,0,0,.27.14.12.06.2.11-.01.06.04.02-.02.01.02-.04,0,.03.04-.16,0-.03,0,.06,0,.21,0,.41-.01.62,0,.3,0,.6,0,.91,0,.24.13.61.02.83-.17.32-.84.45-1.13.58-.4.18-.77.43-1.01.8-.42.64-.47,1.55.12,2.1.27.25.78.48,1.16.47.09.02.19.04.28.07.24-.78.17-1.08-.2-.92-.17,0-.41.21-.57.16-1.08-.31-1.54,1.37-.46,1.69.82.24,2.39-.19,2.66-1.13.14-.49-.05-.97-.47-1.26-.23-.16-.97-.48-1.25-.39l.16.22c.07-.1.16-.17.27-.21.28-.16.63-.22.92-.38.4-.22.79-.52,1.03-.91.43-.72.2-1.56.21-2.35,0-1.08.05-1.96-1-2.56-.72-.41-1.53-.68-2.29-.99-.45-.19-.52-.16-.56-.64-.03-.28.03-.56-.02-.84-.1-.63-.49-.88-.98-1.23-.24-.17-.64-.15-.88,0-.72.45-1.02.74-1.12,1.6-.05.47-.11.95,0,1.41.21.93,1,1.41,1.81,1.77.29.13.59.25.89.38s.87.23,1.11.45c.18.16.08.66.07,1.04-.01.66-.07.73-.64.98-.62.27-1.25.64-1.62,1.22-.14.22-.25.46-.3.72-.03.15-.05.32-.05.47,0,.1-.04.49.02.33l.61-.61c-.94.17-2.24.38-2.09,1.64s1.46,1.28,2.42,1.28l-.87-.87c0,.5.02,1,.01,1.5,0,.65-.11.66-.6,1.02-.56.41-.99,1-.93,1.72.11,1.53,1.99,2.11,3.27,2.05s3.05-.75,2.92-2.31c-.06-.76-.66-1.32-1.29-1.66-.15-.08-.33-.13-.47-.23.32.23.16.03.16-.3,0-.59,0-1.17,0-1.76,0-1.12-1.75-1.13-1.75,0Z"/>
      <path class="cls-1" d="M39.32,46.17c0-.09,0-.17,0-.26,0-.28-.16-.64-.43-.75-.2-.09-.39-.2-.59-.29-.33-.15-.61-.25-.97-.28-.25-.03-.53,0-.77.07-.26.07-.53.21-.72.41-.23.26-.36.56-.37.91,0,.26.07.55.21.77.32.51.89.75,1.47.75.38,0,.71-.11,1.06-.26.23-.1.45-.23.68-.33.19-.08.35-.34.4-.52.06-.21.03-.49-.09-.67s-.3-.35-.52-.4l-.23-.03c-.16,0-.3.04-.44.12-.23.1-.45.23-.68.33l.21-.09c-.14.06-.29.11-.44.13l.23-.03c-.12.01-.24.01-.36,0l.23.03c-.08-.01-.16-.03-.23-.06l.21.09c-.06-.03-.11-.06-.16-.09l.18.14s-.07-.07-.11-.11l.14.18s-.05-.08-.07-.13l.09.21c-.02-.05-.03-.1-.04-.16l.03.23s0-.09,0-.13l-.03.23s.02-.08.03-.12l-.09.21s.03-.06.05-.09l-.14.18s.06-.07.09-.09l-.18.14c.05-.04.11-.07.17-.1l-.21.09c.09-.03.18-.06.27-.07l-.23.03c.13-.02.26-.01.39,0l-.23-.03c.14.02.27.06.4.11l-.21-.09c.24.1.46.23.7.34l-.43-.75c0,.09,0,.17,0,.26,0,.46.41.89.87.87s.86-.38.87-.87Z"/>
    </g>
  </g>
  <g class="cls-3">
    <g>
      <path class="cls-1" d="M25.2,40.43c-.28.93-1.72.93-2.46.64-.13-.05-.35-.13-.43-.27-.06-.09-.09.03.02-.1.37-.41.97-.45,1.3-.96s.23-1.15.24-1.72c0-.74.01-1.47.01-2.21,0-1.42.09-2.86.01-4.28-.02-.45-.15-.83-.5-1.13-.25-.22-1.1-.36-1.17-.71,0,.04-.03.04.05-.05.13-.14.33-.21.5-.27.51-.16,1.09-.17,1.6-.01.19.06.42.14.55.3.11.13.05.05.03.09-.06.13-.37.21-.48.27-.25.13-.48.29-.67.51-.31.36-.39.78-.41,1.24-.03.78,0,1.58.01,2.36,0,1.56-.09,3.16,0,4.72.03.51.18.93.57,1.27.24.21.55.31.8.5.23.18.42.44.63.64.81.78,2.05-.45,1.24-1.24-.22-.21-.41-.44-.63-.64-.26-.23-.57-.34-.83-.54-.18-.14-.04,0-.03.01,0,0,0-.52,0-.53,0-.52,0-1.05,0-1.57,0-.79,0-1.57,0-2.36,0-.44,0-.87,0-1.31,0-.26,0-.52,0-.79,0-.18-.08-.51,0-.66.04-.08-.1.13.05-.01.11-.11.31-.15.45-.23.28-.17.53-.37.73-.64.34-.46.43-1.03.26-1.57-.42-1.32-2.14-1.76-3.36-1.66-1.15.09-2.55.62-2.78,1.89-.11.59.11,1.18.53,1.6.22.22.48.4.76.53.13.06.27.12.4.16-.14-.04,0-.34-.05.08-.1.84,0,1.75,0,2.59,0,.95,0,1.9-.01,2.85,0,.39,0,.78-.01,1.17,0,.47.1.33-.29.54-.57.31-1.11.76-1.26,1.42-.38,1.65,1.53,2.51,2.86,2.59,1.49.08,3-.57,3.46-2.07.33-1.08-1.36-1.54-1.69-.46Z"/>
      <path class="cls-1" d="M23.9,39.22c-.1,0-.19,0-.29,0-.05,0-.1,0-.14,0-.16,0-.3.04-.44.12-.07.05-.13.1-.2.15l.18-.14c-.36.28-.8.46-1.04.87-.1.17-.14.35-.14.54s.07.41.18.57c.17.25.37.43.62.59.5.33,1.08.4,1.65.29.53-.1,1.11-.51,1.21-1.07.04-.23.04-.31,0-.55-.02-.1-.06-.18-.11-.29-.06-.13-.17-.26-.27-.36-.2-.19-.44-.34-.66-.51l.18.14s-.07-.06-.11-.09c-.18-.15-.38-.26-.62-.26-.21,0-.47.1-.62.26s-.27.39-.26.62.08.47.26.62c.2.17.41.31.62.47l-.18-.14c.08.06.16.13.23.22l-.14-.18s.04.06.05.09l-.09-.21s.02.05.02.08l-.03-.23s0,.05,0,.08l.03-.23s-.01.06-.03.1l.09-.21s-.03.06-.05.09l.14-.18s-.06.07-.09.09l.18-.14c-.06.05-.12.08-.19.11l.21-.09c-.1.04-.2.07-.3.08l.23-.03c-.13.02-.26.02-.4,0l.23.03c-.1-.02-.19-.04-.28-.08l.21.09c-.12-.05-.23-.12-.33-.19l.18.14c-.07-.05-.14-.11-.19-.18l.14.18s-.04-.06-.06-.1l.09.21s-.02-.04-.02-.06l.03.23s0-.03,0-.04l-.03.23s0-.02,0-.03l-.09.21s.03-.05.04-.07l-.14.18c.04-.05.09-.09.14-.13l-.18.14c.24-.18.51-.34.75-.53l-.62.26c.14,0,.29,0,.43,0,.22,0,.46-.1.62-.26s.27-.4.26-.62c-.02-.48-.38-.87-.87-.87Z"/>
      <path class="cls-1" d="M23.77,28.18c-.13,0-.25,0-.38,0-.28,0-.47.09-.68.27-.04.03-.08.07-.12.1l.18-.14c-.2.15-.42.29-.6.48-.24.25-.4.58-.39.93.03.66.56,1.12,1.18,1.27.26.06.53.09.8.08.25,0,.51-.04.74-.13.33-.12.61-.3.8-.6.18-.28.22-.63.13-.95-.16-.62-.77-.86-1.23-1.2-.17-.13-.48-.14-.67-.09s-.42.21-.52.4c-.11.2-.16.45-.09.67l.09.21c.08.13.18.24.31.31.2.15.42.26.61.41l-.18-.14c.06.04.11.09.15.15l-.14-.18s.04.06.05.09l-.09-.21s.02.06.02.09l-.03-.23s0,.06,0,.08l.03-.23s-.01.05-.02.08l.09-.21s-.03.05-.04.07l.14-.18s-.05.05-.08.08l.18-.14c-.05.04-.11.07-.17.1l.21-.09c-.11.04-.22.07-.33.09l.23-.03c-.2.03-.4.02-.6,0l.23.03c-.13-.02-.25-.05-.37-.09l.21.09c-.06-.03-.12-.06-.17-.1l.18.14s-.07-.06-.1-.09l.14.18s-.03-.05-.05-.08l.09.21s-.02-.06-.03-.1l.03.23s0-.06,0-.09l-.03.23s.01-.05.02-.08l-.09.21s.04-.06.06-.09l-.14.18c.07-.08.15-.15.23-.22l-.18.14c.18-.14.37-.27.54-.42l-.62.26c.14,0,.29,0,.43,0,.23,0,.46-.09.62-.26.15-.15.27-.4.26-.62s-.08-.46-.26-.62-.38-.26-.62-.26Z"/>
    </g>
  </g>
  <g class="cls-5">
    <g>
      <path class="cls-1" d="M41.39,7.94c0-.66-.01-1.31,0-1.97,0-.51.08-1.04-.19-1.49s-.67-.57-1.1-.76c-.21-.1-.35-.12-.25-.3.14-.27.75-.35,1-.38.48-.05,1.1-.01,1.51.27.15.1.23.16.16.27-.07.12-.38.19-.5.23-.26.1-.51.23-.71.43-.34.36-.39.82-.39,1.29,0,.67,0,1.34-.01,2.01s-.01,1.34-.02,2.01c0,.3,0,.59,0,.89,0,.14-.06.43,0,.56s-.05.15.06.03c-.29.32-.98.47-1.36.66-.57.27-1.12.6-1.71.82-.15.06-.26.08-.41.09-.1,0-.35-.02-.34,0,.21.3.38-.23.05.26-.27.41-.21.2-.06.2.18,0,.38-.06.57-.06,1.11,0,2.41-.34,3.19-1.19.39-.42.52-.88.53-1.45.01-.8,0-1.6,0-2.4,0-.47-.4-.87-.87-.87h0c-1.12,0-1.13,1.75,0,1.75h0c-.29-.29-.58-.58-.87-.87,0,.8,0,1.6,0,2.4,0,.41-.54.62-.96.74-.96.29-2.8-.13-3.07,1.23-.12.63.15,1.45.71,1.81.45.28,1.12.24,1.62.16.63-.1,1.23-.47,1.8-.75.66-.32,1.39-.58,2.01-.96.5-.31.82-.77.87-1.36.07-.85,0-1.72.01-2.57s.02-1.64.02-2.45c0-.22,0-.45,0-.67v-.22c.01-.16,0-.14-.04.07.07.16-.25-.02.03.06.14.04.55-.22.68-.3,1.13-.68,1.31-2.16.31-3.04s-2.58-1-3.77-.62c-1.28.4-2.4,1.73-1.51,3.05.19.28.46.51.76.68.09.05.42.25.52.22.03.03.07.04.1.03-.06-.06-.09-.13-.08-.21.04.01-.02,1.13-.02,1.19,0,.51,0,1.02,0,1.53,0,1.12,1.75,1.13,1.75,0Z"/>
      <path class="cls-1" d="M41.56,5.02c.4-.3.88-.53,1.18-.93.23-.3.33-.7.21-1.07-.1-.33-.35-.62-.67-.76-.56-.26-1.22-.31-1.82-.17-.28.06-.57.2-.77.41-.3.31-.41.73-.31,1.14.14.58.71.88,1.12,1.24.17.15.38.26.62.26.21,0,.47-.1.62-.26s.27-.39.26-.62-.08-.46-.26-.62c-.16-.14-.32-.27-.49-.4-.12-.09-.24-.19-.33-.3l.14.18s-.04-.06-.05-.09l.09.21s-.02-.05-.02-.08l.03.23s0-.06,0-.09l-.03.23s.01-.05.02-.08l-.09.21s.02-.04.03-.06l-.14.18s.05-.05.08-.08l-.18.14s.1-.07.16-.09l-.21.09c.11-.04.23-.07.34-.09l-.23.03c.2-.02.41-.02.61,0l-.23-.03c.12.02.25.05.36.1l-.21-.09c.06.03.12.06.17.1l-.18-.14s.05.05.08.08l-.14-.18s.02.04.03.06l-.09-.21s.02.05.02.08l-.03-.23s0,.04,0,.07l.03-.23s-.01.06-.02.09l.09-.21s-.03.06-.05.08l.14-.18c-.05.07-.12.13-.19.18l.18-.14c-.24.18-.5.34-.75.53-.1.05-.18.13-.25.23-.08.08-.13.18-.16.3-.06.21-.03.49.09.67s.3.35.52.4.49.05.67-.09Z"/>
    </g>
  </g>
  <g class="cls-9">
    <g>
      <path class="cls-1" d="M31.6,14.59c-.31.63-.23,1.31.33,1.77.2.17.42.29.65.4.16.07.33.14.49.21,0,0,.23.1.11.05-.09-.04.12.05.14.06.3.14.57.29.91.3.32,0,.63-.06.95-.07.37,0,.47,0,.8.08.11.03.21.06.31.1-.18-.07.04.03.06.04.04.03.2.15.05.02.03.03.06.06.1.09.15.12-.06-.1,0,0,.04.06.07.17,0-.02.01.04.03.08.04.11.03.21-.05-.19,0,.02,0-.03.05-.2,0-.05s0-.01.02-.04c-.02.04-.04.07-.06.11.07-.08.08-.09.03-.05-.04.03-.09.09-.12.12.12-.11.04-.03,0,0-.07.04-.14.08-.2.12-.02.01-.15.06-.02.01-.32.12-.51.15-.79.16-.35.01-.58,0-.86-.07-.11-.03-.23-.06-.34-.1.16.06-.07-.03-.09-.04-.07-.04-.13-.08-.19-.12.2.13-.13-.16-.05-.05s-.03-.05-.03-.07c.02.17.04.11.02.04-.06-.2.03.2,0,0,0,.02-.03.22,0,.04.03-.25.05-.43,0-.69-.1-.39-.36-.69-.69-.92-.17-.11-.36-.19-.55-.27-.18-.07-.24-.1-.38-.16-.07-.03-.14-.07-.21-.11-.04-.02-.08-.04-.12-.07-.05-.04-.05-.03.01.02l-.05-.05.13.24s-.05-.23-.05-.27c-.04-.44.03-.88.07-1.32l-.12.44s-.24.31-.31.28c.01,0,.16-.04.19-.05.08-.04-.07,0-.09,0-.15.02.14-.02,0,0l.07.04-.23-.31s0-.13,0,0c-.02.16-.02.32-.02.48,0,.47.41.87.87.87s.86-.4.87-.87c0-.5.08-1.04-.31-1.44-.35-.36-.89-.54-1.38-.47-.47.06-1,.24-1.19.71-.1.26-.1.57-.13.85-.02.25-.04.5-.02.75.03.53.12,1.07.55,1.42.38.31.82.46,1.27.66.04.02.04.02.13.07.04.02.07.04.1.06-.03-.02-.11-.11-.01,0,0,0-.09-.14-.04-.06s-.03-.07-.03-.08c0,0,0-.18-.01-.08,0,.12.02-.15.01-.03-.03.45-.04.82.2,1.22.42.7,1.26,1.07,2.04,1.19.93.14,1.92.09,2.76-.38.77-.42,1.27-1.22,1.09-2.11-.16-.8-.87-1.31-1.6-1.55-.45-.15-.94-.21-1.41-.21-.25,0-.49.03-.74.05-.04,0-.09,0-.13.01-.06,0-.15-.03-.08.01.01,0,.15.03.15.05,0,0-.12-.06-.13-.07-.2-.1-.42-.19-.63-.27-.04-.02-.07-.03-.11-.04-.13-.05.12.05,0,0-.08-.04-.16-.07-.24-.11-.08-.04-.16-.09-.24-.13-.02,0-.11-.07-.01,0s0,0-.02-.03c-.05-.08.05.08.05.08-.06-.11.02.05.03.07.02.07.01.13,0,.2,0,.14.06-.09-.03.1.21-.42.12-.94-.31-1.2-.38-.22-.99-.11-1.2.31Z"/>
      <path class="cls-1" d="M35.39,16.22h-.37c-.06.01-.12.02-.18.03-.2.03-.35.11-.5.24-.03.03-.07.06-.1.09l.18-.14c-.19.15-.4.28-.58.45-.35.34-.47.85-.22,1.29s.74.61,1.16.87c.26.16.62.15.88,0,.19-.11.39-.19.58-.3.32-.17.62-.44.72-.8.07-.27.03-.56-.12-.79-.13-.2-.28-.31-.47-.45-.16-.12-.35-.22-.51-.34l.18.14h-.02c-.08-.1-.17-.16-.28-.19-.1-.05-.22-.08-.34-.08-.21,0-.47.1-.62.26s-.27.39-.26.62c0,.21.08.48.26.62.15.11.29.22.45.32.1.06.2.13.29.2l-.18-.14s.08.07.12.11l-.14-.18s.02.03.03.05l-.09-.21s0,.02,0,.04l-.03-.23s0,.02,0,.02l.03-.23s0,.02-.01.04l.09-.21s-.02.03-.03.05l.14-.18s-.06.06-.09.09l.18-.14c-.23.17-.51.27-.76.41h.88c-.23-.14-.48-.24-.7-.4l.18.14s-.08-.07-.11-.11l.14.18s-.03-.04-.04-.06l.09.21s0-.02-.01-.04l.03.23s0-.02,0-.02l-.03.23s0-.02.01-.04l-.09.21s.02-.04.03-.05l-.14.18c.05-.06.12-.12.18-.17l-.18.14c.18-.14.38-.27.55-.42l-.62.26h.43c.23-.02.46-.1.62-.27.15-.15.27-.4.26-.62s-.08-.46-.26-.62-.38-.26-.62-.26Z"/>
    </g>
  </g>
  <g class="cls-6">
    <path class="cls-1" d="M20.98,10.58c.1,0,.2,0,.3.01.04,0,.17.03-.01,0,.05,0,.1.02.14.03.08.02.16.04.24.06.05.01.26.05.29.1,0,0-.19-.09-.03,0,.03.01.06.03.09.04.07.04.14.09.21.13.1.05-.11-.11-.04-.03.02.02.04.04.06.06.03.02.05.05.08.08.12.11-.06-.11-.02-.04.01.03.14.23.06.09-.06-.12-.01-.04,0,0,.01.08-.01-.12-.01-.12,0,0,0,.08,0,.09-.05.15.02-.11.01-.1,0,0-.02.09-.02.09-.01-.05.11-.19.02-.06-.01.02-.03.04-.04.06-.06.12.03-.05.05-.06-.03,0-.12.12-.15.15-.09.1.04-.05.05-.03,0,0-.1.07-.1.07-.07.04-.14.08-.21.12-.03.02-.08.04-.11.05.19-.06.07-.03.03-.02-.09.03-.17.06-.26.08-.08.02-.16.04-.24.05-.03,0-.18.03-.07.01.13-.01-.11,0-.11,0-.19.01-.38,0-.58,0-.13,0,.14.03,0,0-.04,0-.07-.01-.11-.02-.11-.02-.22-.05-.32-.08-.05-.01-.09-.03-.14-.05-.03,0-.17-.07-.06-.02.1.04-.11-.06-.14-.07-.08-.04-.15-.09-.22-.13-.12-.07.03.03.03.03-.02,0-.09-.09-.1-.1-.15-.13.05.11-.01,0-.02-.03-.03-.06-.05-.08-.07-.12.03.07.03.08-.01-.03-.02-.06-.02-.09,0,0,.02.23.02.1,0,0-.05.2-.02.12.01-.03.03-.08.03-.11,0,.14-.08.15-.03.08.01-.02.11-.15.02-.04s.09-.08.12-.11c.07-.07,0-.05-.04.03.02-.03.1-.07.13-.09.08-.05.17-.1.26-.14.04-.02.15-.05-.02,0,.04-.02.09-.03.13-.05.1-.04.21-.06.31-.09.05-.01.1-.02.15-.03.08-.02.15-.02.03,0,.13-.01.26-.02.38-.02.46,0,.9-.4.87-.87s-.38-.88-.87-.87c-1.08.01-2.34.4-2.95,1.37-.65,1.03.08,2.15,1.05,2.62,1.03.5,2.29.59,3.37.16.96-.38,1.92-1.28,1.57-2.42-.38-1.23-1.88-1.71-3.04-1.73-.46,0-.89.41-.87.87s.38.87.87.87Z"/>
  </g>
  <g class="cls-10">
    <g>
      <path class="cls-1" d="M26.8,12.91c1.48-.01,2.96-.21,4.37-.68,1.17-.39,2.49-.9,3.27-1.91s.47-2.2.44-3.43c-.02-.87.05-1.74.07-2.61,0-.59-.06-1.09-.54-1.48-.24-.2-1.09-.35-.86-.7.33-.51,1.63-.37,2.08-.23.17.05.45.13.55.31.04.08.03.14.07.02-.03.08-.22.17-.25.19-.59.35-1.22.41-1.47,1.15-.2.62-.08,1.4-.08,2.04,0,.91-.02,1.81-.01,2.72,0,.4,0,.81,0,1.21,0,.37.04.34-.27.5-.74.38-1.57.67-2.33.99-1.53.66-3.02.89-4.65,1.15-.67.1-1.33.26-1.72.88-.33.53-.29,1.11.19,1.52.26.22.57.33.88.44.15.05.55.14.65.31.19.33-.76.49-1.04.52-.26.02-1.58-.01-1.61-.41-.01-.13.57-.6.65-.71.18-.28.27-.6.29-.93,0-.1-.02-.24,0-.33.08-.23-.16.16.06-.07.26-.26.48-.31.62-.69.24-.63.15-1.49.13-2.15-.02-.49-.11-.45.32-.69.31-.17.61-.28.94-.39.59-.2,1.15-.46,1.53-.98.5-.69.66-1.99-.05-2.61-.43-.38-1.02-.37-1.57-.4-.36-.02-.72-.04-1.07-.12-.13-.03-.69-.27-.68-.18-.03-.51,1.6-.45,1.86-.41.35.05.69.13,1.05.11.43-.02.85-.11,1.28-.04.17.03.8.15.82.4,0-.03-.34.17-.47.22-.55.22-1.06.51-1.2,1.13-.1.45.25.9-.09,1.27-.45.48-1.3.53-1.87.82-1.44.73-1.14,2.02-1.17,3.38-.03,1.13,1.72,1.12,1.75,0,.01-.44.03-.86-.01-1.29-.03-.33-.08-.29.06-.44.22-.24.77-.31,1.06-.41.36-.14.72-.3,1.04-.52.46-.32.85-.77.99-1.33.08-.3.08-.61.03-.91-.01-.07-.09-.61-.13-.15-.12.2-.08.23.12.1.15-.05.29-.11.43-.17,1.28-.63,1.61-2.2.47-3.16-.55-.46-1.26-.65-1.96-.7-.39-.03-.76.04-1.15.05-.47,0-.93-.13-1.4-.15-1.27-.05-3.16.53-3.25,2.06-.09,1.71,1.94,2.07,3.23,2.17.05,0,.75.06.76.04l-.11-.13c-.11-.18-.14-.18-.1.01-.09.16.01.25-.15.42-.24.24-.71.28-1.01.39-.4.15-.82.36-1.18.59-.58.37-.87.9-.89,1.59-.01.48.03.96.02,1.43,0,.07-.14.7,0,.48.12-.2-.38.25-.43.31-.39.48-.21,1.01-.46,1.49-.17.32-.54.54-.71.9-.17.38-.23.81-.1,1.22.48,1.51,2.58,1.8,3.9,1.57s2.66-1.24,2.14-2.71c-.22-.61-.76-1.01-1.34-1.27-.1-.04-.3-.15-.43-.17l-.24-.07c-.05.57.11.77.49.61.42.07,1.07-.15,1.49-.22.89-.14,1.73-.29,2.58-.62.92-.36,1.82-.78,2.73-1.16.65-.27,1.39-.5,1.77-1.15.45-.76.23-1.89.23-2.73,0-.96.01-1.91.02-2.87,0-.25,0-.5,0-.76,0-.88.02-.2,0-.18.13-.13.52-.19.68-.29.18-.1.37-.23.52-.37,1.06-1.01.48-2.51-.7-3.11-1.39-.71-3.88-.6-4.75.9-.36.62-.3,1.38.12,1.96.22.3.63.7,1.01.78.15.03.3.24.13-.07.1.19-.02.69-.03.92-.04,1.2,0,2.35.07,3.55.03.61-.25.98-.76,1.3-1.65,1.06-3.77,1.39-5.7,1.41-1.12.01-1.13,1.76,0,1.75Z"/>
      <path class="cls-1" d="M35.03.64c-.22,0-.47-.02-.68.04-.24.07-.42.27-.62.42l.18-.14c-.18.14-.39.27-.54.45-.26.3-.41.68-.3,1.08.15.55.7.85,1.19,1.03.22.08.46.12.69.12.12,0,.23-.02.35-.03s.24-.03.36-.07c.26-.09.52-.22.71-.43.28-.31.39-.7.3-1.11-.14-.6-.71-.87-1.15-1.21l.18.14s-.03-.02-.04-.03c-.19-.15-.37-.26-.62-.26-.21,0-.47.1-.62.26s-.27.39-.26.62c0,.22.08.48.26.62.23.18.47.34.7.51l-.18-.14c.07.06.14.12.2.19l-.14-.18s.04.06.05.09l-.09-.21s.02.05.02.08l-.03-.23s0,.05,0,.08l.03-.23s-.01.05-.02.07l.09-.21s-.03.06-.05.08l.14-.18s-.06.06-.09.09l.18-.14c-.05.04-.11.07-.17.09l.21-.09c-.1.04-.21.07-.32.08l.23-.03c-.13.02-.27.02-.4,0l.23.03c-.12-.02-.23-.05-.34-.1l.21.09c-.13-.05-.25-.12-.35-.2l.18.14s-.09-.08-.13-.12l.14.18s-.03-.04-.04-.07l.09.21s0-.02-.01-.04l.03.23s0-.03,0-.05l-.03.23s0-.03.02-.05l-.09.21s.03-.06.05-.08l-.14.18c.09-.11.2-.19.31-.28l-.18.14c.16-.12.33-.24.48-.38l-.62.26c.15,0,.3,0,.45-.01.23,0,.46-.09.62-.26.15-.15.27-.4.26-.62-.02-.46-.38-.89-.87-.87Z"/>
      <path class="cls-1" d="M25.68,13.87c-.25.14-.51.26-.76.4-.33.17-.64.4-.74.77-.08.27-.02.57.13.8.14.21.29.34.5.49s.43.25.63.4c.26.18.62.14.88,0,.2-.1.4-.18.6-.28.33-.17.64-.43.75-.81.12-.43-.09-.83-.39-1.13-.18-.17-.37-.32-.54-.5-.15-.16-.4-.26-.62-.26s-.47.1-.62.26-.27.39-.26.62.09.45.26.62c.12.13.25.24.38.36.1.08.2.17.28.27l-.14-.18s.03.04.04.06l-.09-.21s.01.03.01.05l-.03-.23s0,.01,0,.02l.03-.23s0,.01,0,.02l.09-.21s-.02.04-.03.05l.14-.18s-.06.06-.09.09l.18-.14c-.25.18-.55.27-.82.42h.88c-.22-.15-.46-.26-.67-.42l.18.14c-.05-.04-.1-.08-.14-.13l.14.18s-.03-.05-.05-.08l.09.21s0-.03-.01-.04l.03.23s0-.01,0-.02l-.03.23s0-.01,0-.02l-.09.21s0-.02.02-.03l-.14.18s.04-.04.06-.06l-.18.14c.13-.1.28-.17.43-.24.2-.1.41-.2.6-.32s.34-.31.4-.52.03-.49-.09-.67-.3-.35-.52-.4-.47-.03-.67.09Z"/>
      <path class="cls-1" d="M28.08,5.94c.18.1.36.2.54.31.23.13.48.27.75.26.2,0,.34-.06.51-.13.12-.05.24-.1.36-.17.18-.1.34-.21.52-.32.27-.16.43-.45.43-.75s-.16-.61-.43-.75c-.17-.09-.33-.21-.51-.3-.14-.07-.28-.14-.43-.17-.24-.05-.4-.05-.64-.01-.2.04-.4.14-.58.24s-.35.2-.53.29-.35.33-.4.52c-.06.21-.03.49.09.67s.3.35.52.4l.23.03c.16,0,.3-.04.44-.12.25-.12.47-.27.72-.38l-.21.09c.06-.03.12-.05.19-.05l-.23.03s.08,0,.12,0l-.23-.03c.06.01.13.03.19.05l-.21-.09c.21.09.39.23.58.34v-1.51c-.26.15-.5.33-.77.44l.21-.09c-.05.02-.1.04-.15.06l.23-.03s-.02,0-.03,0l.23.03s-.05-.01-.08-.02l.21.09c-.27-.12-.51-.29-.77-.43-.21-.11-.45-.15-.67-.09-.2.06-.42.21-.52.4-.11.2-.16.45-.09.67.07.21.2.42.4.52Z"/>
      <path class="cls-1" d="M28.31,4.32c-.23-.11-.44-.25-.67-.36-.21-.1-.39-.17-.63-.18-.16,0-.33.03-.48.09-.31.11-.64.25-.87.49s-.34.53-.3.85c.03.24.14.47.33.64.24.21.52.33.79.5s.62.15.88,0c.31-.17.63-.35.94-.52.19-.1.34-.32.4-.52s.03-.49-.09-.67-.3-.35-.52-.4-.46-.03-.67.09c-.31.17-.63.35-.94.52h.88c-.19-.12-.41-.21-.59-.35l.18.14s-.05-.04-.07-.07l.14.18s-.02-.03-.03-.05l.09.21s0-.02,0-.04l.03.23s0-.01,0-.02l-.03.23s0-.01,0-.02l-.09.21s.01-.03.02-.04l-.14.18s.05-.05.08-.08l-.18.14c.09-.07.2-.12.3-.17l-.21.09c.11-.05.22-.09.34-.11l-.23.03s.03,0,.05,0l-.23-.03s.09.02.13.04l-.21-.09c.24.11.47.26.71.38.21.1.44.15.67.09.2-.06.42-.21.52-.4.11-.2.16-.45.09-.67-.07-.21-.2-.42-.4-.52Z"/>
    </g>
  </g>
</svg>